/* XPM */
static char *eb12251ec44f4e3bb0dd22f2edc03335[] = {
/* columns rows colors chars-per-pixel */
"40 40 9 1 ",
"  c #33ADF3",
". c #40B2F4",
"X c #91D2F7",
"o c #98D5F8",
"O c #ACDCF8",
"+ c #CAE8FA",
"@ c #EFF7FB",
"# c gray99",
"$ c None",
/* pixels */
"$$$$$$$$$$$$$$$$$$$$$$$$$$$$$$$$$$$$$$$$",
"$$$$$$$$$$$$$$$$$$$$$$$$$$$$$$$$$$$$$$$$",
"$$$$$$$$$$$$$$$$#####$$$$$$$$$$$$$$$$$$$",
"$$$$$$$$$$$$$$$########$$$$$$$$$$$$$$$$$",
"$$$$$$$$$$$$$###$$$$$$##$$$$$$$$$$$$$$$$",
"$$$$$$$$$$$$$##$$$$$$$$##$$$$$$$$$$$$$$$",
"$$$$$$$$$$$$##$$$$$$$$$$##$$$$$$$$$$$$$$",
"$$$$$$$$$$$$##$$$$$$$$$$##$$$$$$$$$$$$$$",
"$$$$$$$$$$$$#$$$$$$$$$$$$####$$$$$$$$$$$",
"$$$$$$$$$$$$#$$$$$$$$$$$$########$$$$$$$",
"$$$$$$$$$$$$#$$$$$$$$$$$$$$$$$$####$$$$$",
"$$$$$$$$$$$$##$$$$$$$$$$$$$$$$$$$###$$$$",
"$$$$$$   $$$##$$$$$$$$$$$$$$$$$$$$$##$$$",
"$$$$$$    $$$##$$$$$$$$$$$$$$$$$$$$$##$$",
"$$$$#@.  $$$$$###$$$$$$$$$$$$$$$$$$$##$$",
"$$$###$  $$$$$$#######$$$$$$$$$$$$$$$##$",
"$$##$$$  $$$$$$$$$#####$$$$$$$$$$$$$$##$",
"$$##$$$$  $$$$$$$$$$$$##$$$$$$$$$$$$$##$",
"$##$$$$$   $$$$$$$$$$$$##$$$$$$$$$$$$##$",
"$##$$$$$$    $$$$$$$$$$$##$$$$$$$$$$$##$",
"$##$$$$$$$$       $$$$$$##$$$$$$$$$$$##$",
"$##$$$$$$$$$$$     $$$$$$#$$$$$$$$$$$##$",
"$##$$$$$$$$$$$$$$$  $$$$$#$$$$$$$$$$$##$",
"$##$$$$$$$$$$$$$$$$  $$$##$$$$$$$$$$##$$",
"$##$$$$$$$$$$$$$$$$  $$$##$$$$$$$$$$##$$",
"$$##$$$$$$$$$$$$$$$$ $$$##$$$$$$$$$##$$$",
"$$$##$$$$$$$$$$$$$$$ $$##$$$$$$$$###$$$$",
"$$$$###$$$$$$$$$$$$$ X##$$$###$$###$$$$$",
"$$$$$##############+ o#$$$$######$$$$$$$",
"$$$$$$$$###########O  $$$$$####$$$$$$$$$",
"$$$$$$$$$$$$$$$$$$$$  $$$$$$##$$$$$$$$$$",
"$$$$$$$$$$$$$$$$$$$$  $$$$$$$$$$$$$$$$$$",
"$$$$$$$$$$$$$$$$$$$$  $$$$$$$$$$$$$$$$$$",
"$$$$$$$$$$$$$$$$$$$$  $$$$$$$$$$$$$$$$$$",
"$$$$$$$$$$$$$$$$$$$$  $$$$$$$$$$$$$$$$$$",
"$$$$$$$$$$$$$$$$$$$$  $$$$$$$$$$$$$$$$$$",
"$$$$$$$$$$$$$$$$$$$   $$$$$$$$$$$$$$$$$$",
"$$$$$$$$$$$$$$$$$$$   $$$$$$$$$$$$$$$$$$",
"$$$$$$$$$$$$$$$$$$$$ $$$$$$$$$$$$$$$$$$$",
"$$$$$$$$$$$$$$$$$$$$$$$$$$$$$$$$$$$$$$$$"
};
