/* XPM */
static char *_ba4a2adeac84a82c66060637e4360d4[] = {
/* columns rows colors chars-per-pixel */
"20 20 7 1 ",
"  c #33ADF3",
". c #65C1F5",
"X c #91D2F7",
"o c #ACDCF8",
"O c #B9E2F9",
"+ c gray99",
"@ c None",
/* pixels */
"@@@@@@@@@@@@@@@@@@@@",
"@@@@@@@++++@@@@@@@@@",
"@@@@@@++@@++@@@@@@@@",
"@@@@@@+@@@@+@@@@@@@@",
"@@@@@+@@@@@@+++@@@@@",
"@@@@@+@@@@@@@@@++@@@",
"@@  @@+@@@@@@@@@@+@@",
"@+X @@+++@@@@@@@@@+@",
"++@ @@@@+++@@@@@@@+@",
"+@@@ @@@@@@+@@@@@@+@",
"+@@@@    @@@+@@@@@+@",
"+@@@@@@@  @@+@@@@@+@",
"+@@@@@@@@ @+@@@@@+@@",
"@+@@@@@@@ o+@@@@++@@",
"@@+++++++.O@@+++@@@@",
"@@@@@@@@@ @@@@@@@@@@",
"@@@@@@@@@ @@@@@@@@@@",
"@@@@@@@@@ @@@@@@@@@@",
"@@@@@@@@@  @@@@@@@@@",
"@@@@@@@@@@@@@@@@@@@@"
};
