/* XPM */
static char *_8778_62769f113f9df78ee812282dcfe343285268fdb75a685136c197e9531f6fb28c[] = {
/* columns rows colors chars-per-pixel */
"64 64 8 1 ",
"  c #33ADF3",
". c #40B2F4",
"X c #9FD8F8",
"o c #A3D9F8",
"O c #B1DEF9",
"+ c #CAE8FA",
"@ c gray99",
"# c None",
/* pixels */
"################################################################",
"################################################################",
"################################################################",
"##########################@@@@@@@@@#############################",
"########################@@@@@@@@@@@@@###########################",
"#######################@@@@######@@@@@##########################",
"######################@@@##########@@@@#########################",
"#####################@@@#############@@@########################",
"####################@@@###############@@@#######################",
"####################@@################@@@#######################",
"###################@@@#################@@#######################",
"###################@@##################@@@######################",
"###################@@##################@@@######################",
"##################@@@###################@@@@@@@@@###############",
"##################@@@###################@@@@@@@@@@@@@###########",
"###################@@###################@@@@@@@@@@@@@@@#########",
"###################@@##############################@@@@@########",
"###################@@################################@@@@#######",
"###########  ######@@@#################################@@@######",
"#########     ######@@@#################################@@@#####",
"#########      #####@@@##################################@@@####",
"########O      ######@@@##################################@@@###",
"#######@@.     #######@@@@################################@@@###",
"######@@@X    #########@@@@@###############################@@@##",
"#####@@@###  ###########@@@@@@@@@@##########################@@##",
"####@@@####   #############@@@@@@@@@@#######################@@##",
"###@@@#####   ###################@@@@@######################@@@#",
"##@@@#######   ####################@@@@#####################@@@#",
"##@@@########   ####################@@@@#####################@@#",
"##@@#########    ####################@@@#####################@@#",
"#@@@##########     ###################@@@####################@@#",
"#@@#############      #################@@####################@@#",
"#@@##############           ###########@@@###################@@#",
"#@@#################         ##########@@@##################@@@#",
"#@@#######################     #########@@##################@@@#",
"#@@#########################    ########@@##################@@##",
"#@@@#########################   ########@@#################@@@##",
"#@@@##########################   ######@@@#################@@@##",
"##@@###########################  ######@@@################@@@###",
"##@@@##########################   #####@@################@@@####",
"###@@@##########################  ####@@@################@@@####",
"###@@@##########################  ###@@@###############@@@@#####",
"####@@@#########################  ##@@@@##############@@@@######",
"#####@@@@#######################  #@@@@#####@@@@####@@@@@#######",
"######@@@@@#####################  +@@@#####@@@@@@#@@@@@@########",
"#######@@@@@@@@@@@@@@@@@@@@@@@@+  +@@######@@@@@@@@@@@##########",
"##########@@@@@@@@@@@@@@@@@@@@@+  o########@@@@@@@@#############",
"################################  #########@@@@@@###############",
"################################  ##########@@@@################",
"################################  ##############################",
"################################  ##############################",
"################################  ##############################",
"################################  ##############################",
"################################  ##############################",
"################################  ##############################",
"################################  ##############################",
"################################  ##############################",
"###############################    #############################",
"##############################      ############################",
"##############################      ############################",
"###############################     ############################",
"###############################    #############################",
"################################################################",
"################################################################"
};
