/* XPM */
static char *_2234_1e209d405a94fde6cb0dad5a0edd59f2c050e46234475740b06c678c6293dd80[] = {
/* columns rows colors chars-per-pixel */
"80 80 8 1 ",
"  c #33ADF3",
". c #42B3F4",
"X c #65C1F5",
"o c #7ECBF6",
"O c #CAE8FA",
"+ c #E8F4FB",
"@ c gray99",
"# c None",
/* pixels */
"################################################################################",
"################################################################################",
"################################################################################",
"##################################@@@@@@@@######################################",
"###############################@@@@@@@@@@@@@####################################",
"##############################@@@@@@@@@@@@@@@@##################################",
"############################@@@@@@########@@@@@#################################",
"###########################@@@@@############@@@@################################",
"##########################@@@@@##############@@@@###############################",
"##########################@@@#################@@@@##############################",
"#########################@@@@##################@@@@#############################",
"########################@@@@####################@@@#############################",
"########################@@@#####################@@@@############################",
"########################@@@######################@@@############################",
"#######################@@@#######################@@@############################",
"#######################@@@#######################@@@############################",
"#######################@@@########################@@@@@@@@@@@###################",
"#######################@@@########################@@@@@@@@@@@@@@@###############",
"#######################@@@########################@@@@@@@@@@@@@@@@@#############",
"#######################@@@##################################@@@@@@@@@###########",
"#######################@@@######################################@@@@@@##########",
"########################@@@#######################################@@@@@@########",
"########################@@@#########################################@@@@@#######",
"############     #######@@@@#########################################@@@@@######",
"###########       #######@@@###########################################@@@@#####",
"###########       #######@@@@###########################################@@@#####",
"###########        #######@@@@##########################################@@@@####",
"#########@@       #########@@@@##########################################@@@@###",
"########@@@o      ##########@@@@@#########################################@@@###",
"#######@@@@+     ############@@@@@@@@@@###################################@@@@##",
"#####@@@@@###   ##############@@@@@@@@@@@@@################################@@@##",
"#####@@@@#####   ################@@@@@@@@@@@@##############################@@@##",
"####@@@@######   ####################@@@@@@@@@@############################@@@@#",
"###@@@@#######    #########################@@@@@############################@@@#",
"###@@@#########    #########################@@@@@###########################@@@#",
"##@@@@##########    ##########################@@@@##########################@@@#",
"##@@@###########     ##########################@@@##########################@@@#",
"#@@@@############     #########################@@@@#########################@@@#",
"#@@@##############      ########################@@@#########################@@@#",
"#@@@################          ###################@@@########################@@@#",
"#@@@#################             ###############@@@########################@@@#",
"#@@@####################            #############@@@########################@@@#",
"#@@@########################          ###########@@@@#######################@@@#",
"#@@@##############################     ###########@@@######################@@@##",
"#@@@###############################     ##########@@@######################@@@##",
"#@@@#################################   ##########@@@#####################@@@@##",
"#@@@#################################    ########@@@######################@@@###",
"##@@@#################################    #######@@@#####################@@@@###",
"##@@@##################################   #######@@@#####################@@@####",
"##@@@@#################################   ######@@@@####################@@@@####",
"###@@@@################################    #####@@@####################@@@@#####",
"####@@@#################################   ####@@@@###################@@@@######",
"####@@@@################################   ###@@@@###################@@@@#######",
"#####@@@@@##############################   ##@@@@##################@@@@@########",
"######@@@@@#############################   #@@@@@#######@@@@#####@@@@@@#########",
"#######@@@@@@###########################  X@@@@########@@@@@@##@@@@@@@##########",
"#########@@@@@@@@@@@@@@@@@@@@@@@@@@@@@@O  X@@@########@@@@@@@@@@@@@@############",
"##########@@@@@@@@@@@@@@@@@@@@@@@@@@@@@O  X@@#########@@@@@@@@@@@@##############",
"#############@@@@@@@@@@@@@@@@@@@@@@@@@@O  .###########@@@@@@@@@#################",
"########################################   ###########@@@@@@@###################",
"########################################   ############@@@@@####################",
"########################################   ##############@######################",
"########################################   #####################################",
"########################################   #####################################",
"########################################   #####################################",
"########################################   #####################################",
"########################################   #####################################",
"########################################   #####################################",
"########################################   #####################################",
"########################################   #####################################",
"########################################   #####################################",
"#######################################    #####################################",
"######################################      ####################################",
"######################################       ###################################",
"######################################       ###################################",
"######################################      ####################################",
"#######################################     ####################################",
"########################################  ######################################",
"################################################################################",
"################################################################################"
};
