/* XPM */
static char *_2411e5920c941a496e99a28a8938610[] = {
/* columns rows colors chars-per-pixel */
"48 48 11 1 ",
"  c #33ADF3",
". c #42B3F4",
"X c #59BCF5",
"o c #5BBDF5",
"O c #65C1F5",
"+ c #A3D9F8",
"@ c #ACDCF8",
"# c #B3DFF9",
"$ c #CAE8FA",
"% c gray99",
"& c None",
/* pixels */
"&&&&&&&&&&&&&&&&&&&&&&&&&&&&&&&&&&&&&&&&&&&&&&&&",
"&&&&&&&&&&&&&&&&&&&&&&&&&&&&&&&&&&&&&&&&&&&&&&&&",
"&&&&&&&&&&&&&&&&&&&&&%%%%&&&&&&&&&&&&&&&&&&&&&&&",
"&&&&&&&&&&&&&&&&&&%%%%%%%%%&&&&&&&&&&&&&&&&&&&&&",
"&&&&&&&&&&&&&&&&&%%%&&&&&%%%%&&&&&&&&&&&&&&&&&&&",
"&&&&&&&&&&&&&&&&%%%&&&&&&&&%%%&&&&&&&&&&&&&&&&&&",
"&&&&&&&&&&&&&&&%%%&&&&&&&&&&%%&&&&&&&&&&&&&&&&&&",
"&&&&&&&&&&&&&&&%%&&&&&&&&&&&&%%&&&&&&&&&&&&&&&&&",
"&&&&&&&&&&&&&&%%&&&&&&&&&&&&&%%&&&&&&&&&&&&&&&&&",
"&&&&&&&&&&&&&&%%&&&&&&&&&&&&&%%&&&&&&&&&&&&&&&&&",
"&&&&&&&&&&&&&&%%&&&&&&&&&&&&&&%%%%%%%%&&&&&&&&&&",
"&&&&&&&&&&&&&&%%&&&&&&&&&&&&&&%%%%%%%%%%&&&&&&&&",
"&&&&&&&&&&&&&&%%&&&&&&&&&&&&&&&&&&&&&&%%%%&&&&&&",
"&&&&&&&&&&&&&&%%&&&&&&&&&&&&&&&&&&&&&&&&%%%&&&&&",
"&&&&&&&&   &&&&%%&&&&&&&&&&&&&&&&&&&&&&&&%%%&&&&",
"&&&&&&&    &&&&%%%&&&&&&&&&&&&&&&&&&&&&&&&%%%&&&",
"&&&&&&#    &&&&&%%%&&&&&&&&&&&&&&&&&&&&&&&&%%%&&",
"&&&&&%%X   &&&&&&%%%&&&&&&&&&&&&&&&&&&&&&&&&%%&&",
"&&&&%%%&  &&&&&&&&%%%%%%%%&&&&&&&&&&&&&&&&&&%%&&",
"&&&%%&&&&  &&&&&&&&&&%%%%%%%&&&&&&&&&&&&&&&&&%%&",
"&&%%&&&&&  &&&&&&&&&&&&&&&%%%&&&&&&&&&&&&&&&&%%&",
"&&%%&&&&&&  &&&&&&&&&&&&&&&%%%&&&&&&&&&&&&&&&%%&",
"&%%&&&&&&&   &&&&&&&&&&&&&&&%%&&&&&&&&&&&&&&&%%&",
"&%%&&&&&&&&     &&&&&&&&&&&&&%%&&&&&&&&&&&&&&%%&",
"&%%&&&&&&&&&&        &&&&&&&&%%&&&&&&&&&&&&&&%%&",
"&%%&&&&&&&&&&&&&       &&&&&&%%&&&&&&&&&&&&&&%%&",
"&%%&&&&&&&&&&&&&&&&&&   &&&&&&%%&&&&&&&&&&&&&%%&",
"&%%&&&&&&&&&&&&&&&&&&&  &&&&&&%%&&&&&&&&&&&&%%&&",
"&%%&&&&&&&&&&&&&&&&&&&&  &&&&%%&&&&&&&&&&&&&%%&&",
"&&%%&&&&&&&&&&&&&&&&&&&  &&&&%%&&&&&&&&&&&&%%&&&",
"&&%%%&&&&&&&&&&&&&&&&&&&  &&%%%&&&&&&&&&&&%%%&&&",
"&&&%%&&&&&&&&&&&&&&&&&&&  &&%%&&&&&&&&&&&%%%&&&&",
"&&&&%%%&&&&&&&&&&&&&&&&& .%%%&&&&%%%&&&%%%%&&&&&",
"&&&&&%%%%%&&&&&&&&&&%%%@ O%%&&&&%%%%%%%%%&&&&&&&",
"&&&&&&%%%%%%%%%%%%%%%%%$ X%&&&&&%%%%%%%&&&&&&&&&",
"&&&&&&&&&&%%%%%%%%%%%%%+  &&&&&&%%%%%&&&&&&&&&&&",
"&&&&&&&&&&&&&&&&&&&&&&&&  &&&&&&&%%%&&&&&&&&&&&&",
"&&&&&&&&&&&&&&&&&&&&&&&&  &&&&&&&&&&&&&&&&&&&&&&",
"&&&&&&&&&&&&&&&&&&&&&&&&  &&&&&&&&&&&&&&&&&&&&&&",
"&&&&&&&&&&&&&&&&&&&&&&&&  &&&&&&&&&&&&&&&&&&&&&&",
"&&&&&&&&&&&&&&&&&&&&&&&&  &&&&&&&&&&&&&&&&&&&&&&",
"&&&&&&&&&&&&&&&&&&&&&&&&  &&&&&&&&&&&&&&&&&&&&&&",
"&&&&&&&&&&&&&&&&&&&&&&&&  &&&&&&&&&&&&&&&&&&&&&&",
"&&&&&&&&&&&&&&&&&&&&&&&    &&&&&&&&&&&&&&&&&&&&&",
"&&&&&&&&&&&&&&&&&&&&&&&    &&&&&&&&&&&&&&&&&&&&&",
"&&&&&&&&&&&&&&&&&&&&&&&    &&&&&&&&&&&&&&&&&&&&&",
"&&&&&&&&&&&&&&&&&&&&&&&&&&&&&&&&&&&&&&&&&&&&&&&&",
"&&&&&&&&&&&&&&&&&&&&&&&&&&&&&&&&&&&&&&&&&&&&&&&&"
};
