/* XPM */
static char *_5b103e8924b4982ea78fe509e0e645b[] = {
/* columns rows colors chars-per-pixel */
"24 24 5 1 ",
"  c #33ADF3",
". c #69C2F5",
"X c #CAE8FA",
"o c gray99",
"O c None",
/* pixels */
"OOOOOOOOOOOOOOOOOOOOOOOO",
"OOOOOOOOOOoooOOOOOOOOOOO",
"OOOOOOOOooOOoooOOOOOOOOO",
"OOOOOOOooOOOOOoOOOOOOOOO",
"OOOOOOOoOOOOOOooOOOOOOOO",
"OOOOOOOoOOOOOOOooooOOOOO",
"OOOOOOOoOOOOOOOOOOOooOOO",
"OOOO  OooOOOOOOOOOOOOoOO",
"OOO.  OOooOOOOOOOOOOOOoO",
"OOoO OOOOooooOOOOOOOOOoO",
"OoOO  OOOOOOOooOOOOOOOoo",
"OoOOO  OOOOOOOoOOOOOOOoo",
"ooOOOO     OOOOoOOOOOOoo",
"ooOOOOOOOO  OOOoOOOOOOoO",
"OoOOOOOOOOO  OOoOOOOOOoO",
"OoOOOOOOOOOO OoOOOOOOoOO",
"OOooOOOOOOOO ooOooOooOOO",
"OOOooooooooX OOOooooOOOO",
"OOOOOOOOOOOO OOOOoOOOOOO",
"OOOOOOOOOOOO OOOOOOOOOOO",
"OOOOOOOOOOOO OOOOOOOOOOO",
"OOOOOOOOOOOO OOOOOOOOOOO",
"OOOOOOOOOOO  OOOOOOOOOOO",
"OOOOOOOOOOOOOOOOOOOOOOOO"
};
