/* XPM */
static char *_b95ef2fc69147c6cca32334cd5572b0[] = {
/* columns rows colors chars-per-pixel */
"32 32 8 1 ",
"  c #33ADF3",
". c #98D5F8",
"X c #A4D9F8",
"o c #ACDCF8",
"O c #BEE4F9",
"+ c #CAE8FA",
"@ c gray99",
"# c None",
/* pixels */
"################################",
"##############@@################",
"############@@@@@@@#############",
"###########@@#####@@############",
"##########@@#######@############",
"#########@@########@@###########",
"#########@@#########@###########",
"#########@@#########@@@@@@@#####",
"#########@@###############@@####",
"#####  ###@################@@###",
"####    ##@@################@@##",
"###@X  ####@@################@@#",
"##@@#  #####@@@@@@############@#",
"#@@### #########@@@###########@#",
"#@####  ##########@@##########@@",
"@@#####   #########@@#########@@",
"@@#######     ######@#########@@",
"@@###########   ####@#########@#",
"@@############# ####@########@@#",
"#@#############  ##@@########@@#",
"#@@############# ##@@#######@@##",
"##@@############ #@@#######@@###",
"###@@@@@@@@@@@@o +@###@@@@@@####",
"#####@@@@@@@@@@O .###@@@@@######",
"################ #####@@########",
"################ ###############",
"################ ###############",
"################ ###############",
"################ ###############",
"###############   ##############",
"###############   ##############",
"################################"
};
